<mxfile host="app.diagrams.net" modified="2023-08-28T07:33:40.182Z" agent="Mozilla/5.0 (Windows NT 10.0; Win64; x64) AppleWebKit/537.36 (KHTML, like Gecko) Chrome/116.0.0.0 Safari/537.36" etag="DmiYN10aBwv6DkDmO2NX" version="21.6.9" type="device">
  <diagram name="Page-1" id="Z9su-IpZnA1WicuIkTZz">
    <mxGraphModel dx="922" dy="555" grid="1" gridSize="10" guides="1" tooltips="1" connect="1" arrows="1" fold="1" page="1" pageScale="1" pageWidth="827" pageHeight="1169" math="0" shadow="0">
      <root>
        <mxCell id="0" />
        <mxCell id="1" parent="0" />
        <mxCell id="SqRquksW2nZ5C89mBwd1-2" value="Song Finder" style="strokeWidth=1;shadow=0;dashed=0;align=center;html=1;shape=mxgraph.mockup.containers.window;align=left;verticalAlign=top;spacingLeft=8;strokeColor2=#008cff;strokeColor3=#c4c4c4;fontColor=#666666;mainText=;fontSize=17;labelBackgroundColor=none;whiteSpace=wrap;" parent="1" vertex="1">
          <mxGeometry x="100" y="120" width="810" height="660" as="geometry" />
        </mxCell>
        <mxCell id="pZRUgpaE8gb7qNiZiESH-1" value="" style="verticalLabelPosition=bottom;shadow=0;dashed=0;align=center;html=1;verticalAlign=top;strokeWidth=1;shape=mxgraph.mockup.misc.progressBar;fillColor=#cccccc;strokeColor=none;fillColor2=#99ddff;barPos=29.782;" parent="1" vertex="1">
          <mxGeometry x="220" y="160" width="580" height="20" as="geometry" />
        </mxCell>
        <mxCell id="pZRUgpaE8gb7qNiZiESH-2" value="&lt;font style=&quot;font-size: 14px;&quot;&gt;5/20 Songs&lt;/font&gt;" style="text;html=1;strokeColor=none;fillColor=none;align=center;verticalAlign=middle;whiteSpace=wrap;rounded=0;" parent="1" vertex="1">
          <mxGeometry x="810" y="155" width="90" height="30" as="geometry" />
        </mxCell>
        <mxCell id="pZRUgpaE8gb7qNiZiESH-4" value="Song Title:" style="text;html=1;strokeColor=none;fillColor=none;align=center;verticalAlign=middle;whiteSpace=wrap;rounded=0;fontSize=14;fontFamily=Helvetica;fontColor=default;" parent="1" vertex="1">
          <mxGeometry x="124" y="210" width="80" height="30" as="geometry" />
        </mxCell>
        <mxCell id="pZRUgpaE8gb7qNiZiESH-5" value="XXXX" style="strokeWidth=1;shadow=0;dashed=0;align=center;html=1;shape=mxgraph.mockup.forms.searchBox;strokeColor=#999999;mainText=;strokeColor2=#008cff;fontColor=#666666;fontSize=17;align=left;spacingLeft=3;whiteSpace=wrap;rounded=0;fontFamily=Helvetica;fillColor=none;gradientColor=none;" parent="1" vertex="1">
          <mxGeometry x="224" y="210" width="676" height="30" as="geometry" />
        </mxCell>
        <mxCell id="pZRUgpaE8gb7qNiZiESH-7" value="Progress:" style="text;html=1;strokeColor=none;fillColor=none;align=center;verticalAlign=middle;whiteSpace=wrap;rounded=0;fontSize=14;fontFamily=Helvetica;fontColor=default;" parent="1" vertex="1">
          <mxGeometry x="125" y="155" width="70" height="30" as="geometry" />
        </mxCell>
        <mxCell id="pZRUgpaE8gb7qNiZiESH-8" value="Search Results:" style="text;html=1;strokeColor=none;fillColor=none;align=center;verticalAlign=middle;whiteSpace=wrap;rounded=0;fontSize=14;fontFamily=Helvetica;fontColor=default;" parent="1" vertex="1">
          <mxGeometry x="114" y="250" width="130" height="30" as="geometry" />
        </mxCell>
        <mxCell id="pZRUgpaE8gb7qNiZiESH-9" value="" style="verticalLabelPosition=bottom;shadow=0;dashed=0;align=center;html=1;verticalAlign=top;strokeWidth=1;shape=mxgraph.mockup.markup.line;strokeColor=#999999;rounded=0;fontFamily=Helvetica;fontSize=14;fontColor=default;fillColor=none;gradientColor=none;" parent="1" vertex="1">
          <mxGeometry x="100" y="185" width="810" height="20" as="geometry" />
        </mxCell>
        <mxCell id="pZRUgpaE8gb7qNiZiESH-10" value="" style="rounded=1;whiteSpace=wrap;html=1;fontFamily=Helvetica;fontSize=14;fontColor=default;fillColor=none;gradientColor=none;" parent="1" vertex="1">
          <mxGeometry x="130" y="290" width="760" height="380" as="geometry" />
        </mxCell>
        <mxCell id="pZRUgpaE8gb7qNiZiESH-11" value="" style="verticalLabelPosition=bottom;shadow=0;dashed=0;align=center;html=1;verticalAlign=top;strokeWidth=1;shape=mxgraph.mockup.markup.line;strokeColor=#999999;rounded=0;fontFamily=Helvetica;fontSize=14;fontColor=default;fillColor=none;gradientColor=none;" parent="1" vertex="1">
          <mxGeometry x="100" y="670" width="810" height="20" as="geometry" />
        </mxCell>
        <mxCell id="pZRUgpaE8gb7qNiZiESH-12" value="No result found?" style="text;html=1;strokeColor=none;fillColor=none;align=center;verticalAlign=middle;whiteSpace=wrap;rounded=0;fontSize=14;fontFamily=Helvetica;fontColor=default;" parent="1" vertex="1">
          <mxGeometry x="114" y="690" width="126" height="30" as="geometry" />
        </mxCell>
        <mxCell id="pZRUgpaE8gb7qNiZiESH-13" value="Override the VocaDB Song ID:" style="text;html=1;strokeColor=none;fillColor=none;align=center;verticalAlign=middle;whiteSpace=wrap;rounded=0;fontSize=14;fontFamily=Helvetica;fontColor=default;" parent="1" vertex="1">
          <mxGeometry x="114" y="720" width="206" height="30" as="geometry" />
        </mxCell>
        <mxCell id="pZRUgpaE8gb7qNiZiESH-14" value="xxx" style="strokeWidth=1;shadow=0;dashed=0;align=center;html=1;shape=mxgraph.mockup.forms.pwField;strokeColor=#999999;mainText=;align=left;fontColor=#666666;fontSize=17;spacingLeft=3;rounded=0;fontFamily=Helvetica;fillColor=none;gradientColor=none;" parent="1" vertex="1">
          <mxGeometry x="339" y="720" width="150" height="30" as="geometry" />
        </mxCell>
        <mxCell id="pZRUgpaE8gb7qNiZiESH-15" value="Override and continue" style="strokeWidth=1;shadow=0;dashed=0;align=center;html=1;shape=mxgraph.mockup.buttons.button;strokeColor=#666666;fontColor=#ffffff;mainText=;buttonStyle=round;fontSize=17;fontStyle=1;fillColor=#008cff;whiteSpace=wrap;rounded=0;fontFamily=Helvetica;" parent="1" vertex="1">
          <mxGeometry x="516" y="720" width="204" height="30" as="geometry" />
        </mxCell>
        <mxCell id="pZRUgpaE8gb7qNiZiESH-16" value="" style="rounded=1;whiteSpace=wrap;html=1;fontFamily=Helvetica;fontSize=14;fontColor=default;fillColor=none;gradientColor=none;arcSize=50;" parent="1" vertex="1">
          <mxGeometry x="140" y="370" width="350" height="120" as="geometry" />
        </mxCell>
        <mxCell id="pZRUgpaE8gb7qNiZiESH-17" value="Thumbnail" style="rounded=0;whiteSpace=wrap;html=1;fontFamily=Helvetica;fontSize=14;fontColor=default;fillColor=none;gradientColor=none;" parent="1" vertex="1">
          <mxGeometry x="160" y="390" width="130" height="80" as="geometry" />
        </mxCell>
        <mxCell id="pZRUgpaE8gb7qNiZiESH-18" value="&lt;b style=&quot;font-size: 15px;&quot;&gt;&amp;nbsp;Song Name&lt;/b&gt;" style="text;html=1;strokeColor=none;fillColor=none;align=center;verticalAlign=middle;whiteSpace=wrap;rounded=0;fontSize=15;fontFamily=Helvetica;fontColor=default;" parent="1" vertex="1">
          <mxGeometry x="324" y="375" width="90" height="30" as="geometry" />
        </mxCell>
        <mxCell id="pZRUgpaE8gb7qNiZiESH-19" value="PVs:" style="text;html=1;strokeColor=none;fillColor=none;align=center;verticalAlign=middle;whiteSpace=wrap;rounded=0;fontSize=14;fontFamily=Helvetica;fontColor=default;" parent="1" vertex="1">
          <mxGeometry x="286" y="460" width="58" height="30" as="geometry" />
        </mxCell>
        <mxCell id="pZRUgpaE8gb7qNiZiESH-20" value="" style="rounded=0;whiteSpace=wrap;html=1;fontFamily=Helvetica;fontSize=14;fontColor=default;fillColor=none;gradientColor=none;" parent="1" vertex="1">
          <mxGeometry x="339" y="465" width="20" height="20" as="geometry" />
        </mxCell>
        <mxCell id="pZRUgpaE8gb7qNiZiESH-21" value="" style="rounded=0;whiteSpace=wrap;html=1;fontFamily=Helvetica;fontSize=14;fontColor=default;fillColor=none;gradientColor=none;" parent="1" vertex="1">
          <mxGeometry x="364" y="465" width="21" height="20" as="geometry" />
        </mxCell>
        <mxCell id="pZRUgpaE8gb7qNiZiESH-22" value="&lt;h1&gt;No Result&lt;/h1&gt;" style="text;html=1;strokeColor=none;fillColor=none;align=center;verticalAlign=middle;whiteSpace=wrap;rounded=0;fontSize=14;fontFamily=Helvetica;fontColor=default;" parent="1" vertex="1">
          <mxGeometry x="279" y="300" width="270" height="50" as="geometry" />
        </mxCell>
        <mxCell id="FWy4HQQSJREB0Mu0vMbK-1" value="&lt;span style=&quot;color: rgb(0, 0, 0); font-family: Helvetica; font-size: 14px; font-style: normal; font-variant-ligatures: normal; font-variant-caps: normal; font-weight: 400; letter-spacing: normal; orphans: 2; text-align: center; text-indent: 0px; text-transform: none; widows: 2; word-spacing: 0px; -webkit-text-stroke-width: 0px; background-color: rgb(251, 251, 251); text-decoration-thickness: initial; text-decoration-style: initial; text-decoration-color: initial; float: none; display: inline !important;&quot;&gt;Producers feat. Vocal&lt;/span&gt;" style="text;whiteSpace=wrap;html=1;fontSize=14;" parent="1" vertex="1">
          <mxGeometry x="300" y="405" width="170" height="40" as="geometry" />
        </mxCell>
        <mxCell id="qXwGblJqF237bT5NVIZt-1" value="Published at: 2014-08-31" style="text;html=1;strokeColor=none;fillColor=none;align=center;verticalAlign=middle;whiteSpace=wrap;rounded=0;fontSize=14;" parent="1" vertex="1">
          <mxGeometry x="288" y="430" width="182" height="30" as="geometry" />
        </mxCell>
        <mxCell id="lM5ClQp3Q17mZf645Zi1-1" value="" style="rounded=1;whiteSpace=wrap;html=1;fontFamily=Helvetica;fontSize=14;fontColor=default;fillColor=none;gradientColor=none;arcSize=50;" vertex="1" parent="1">
          <mxGeometry x="516" y="370" width="350" height="120" as="geometry" />
        </mxCell>
        <mxCell id="lM5ClQp3Q17mZf645Zi1-2" value="Thumbnail" style="rounded=0;whiteSpace=wrap;html=1;fontFamily=Helvetica;fontSize=14;fontColor=default;fillColor=none;gradientColor=none;" vertex="1" parent="1">
          <mxGeometry x="536" y="390" width="130" height="80" as="geometry" />
        </mxCell>
        <mxCell id="lM5ClQp3Q17mZf645Zi1-3" value="&lt;b style=&quot;font-size: 15px;&quot;&gt;&amp;nbsp;Song Name&lt;/b&gt;" style="text;html=1;strokeColor=none;fillColor=none;align=center;verticalAlign=middle;whiteSpace=wrap;rounded=0;fontSize=15;fontFamily=Helvetica;fontColor=default;" vertex="1" parent="1">
          <mxGeometry x="700" y="375" width="90" height="30" as="geometry" />
        </mxCell>
        <mxCell id="lM5ClQp3Q17mZf645Zi1-4" value="PVs:" style="text;html=1;strokeColor=none;fillColor=none;align=center;verticalAlign=middle;whiteSpace=wrap;rounded=0;fontSize=14;fontFamily=Helvetica;fontColor=default;" vertex="1" parent="1">
          <mxGeometry x="662" y="460" width="58" height="30" as="geometry" />
        </mxCell>
        <mxCell id="lM5ClQp3Q17mZf645Zi1-5" value="" style="rounded=0;whiteSpace=wrap;html=1;fontFamily=Helvetica;fontSize=14;fontColor=default;fillColor=none;gradientColor=none;" vertex="1" parent="1">
          <mxGeometry x="715" y="465" width="20" height="20" as="geometry" />
        </mxCell>
        <mxCell id="lM5ClQp3Q17mZf645Zi1-6" value="" style="rounded=0;whiteSpace=wrap;html=1;fontFamily=Helvetica;fontSize=14;fontColor=default;fillColor=none;gradientColor=none;" vertex="1" parent="1">
          <mxGeometry x="740" y="465" width="21" height="20" as="geometry" />
        </mxCell>
        <mxCell id="lM5ClQp3Q17mZf645Zi1-7" value="&lt;span style=&quot;color: rgb(0, 0, 0); font-family: Helvetica; font-size: 14px; font-style: normal; font-variant-ligatures: normal; font-variant-caps: normal; font-weight: 400; letter-spacing: normal; orphans: 2; text-align: center; text-indent: 0px; text-transform: none; widows: 2; word-spacing: 0px; -webkit-text-stroke-width: 0px; background-color: rgb(251, 251, 251); text-decoration-thickness: initial; text-decoration-style: initial; text-decoration-color: initial; float: none; display: inline !important;&quot;&gt;Producers feat. Vocal&lt;/span&gt;" style="text;whiteSpace=wrap;html=1;fontSize=14;" vertex="1" parent="1">
          <mxGeometry x="676" y="405" width="170" height="40" as="geometry" />
        </mxCell>
        <mxCell id="lM5ClQp3Q17mZf645Zi1-8" value="Published at: 2014-08-31" style="text;html=1;strokeColor=none;fillColor=none;align=center;verticalAlign=middle;whiteSpace=wrap;rounded=0;fontSize=14;" vertex="1" parent="1">
          <mxGeometry x="664" y="430" width="182" height="30" as="geometry" />
        </mxCell>
        <mxCell id="lM5ClQp3Q17mZf645Zi1-9" value="&lt;h1&gt;Flow:&lt;/h1&gt;&lt;div style=&quot;font-size: 14px;&quot;&gt;When Loading:&lt;/div&gt;&lt;div style=&quot;font-size: 14px;&quot;&gt;&lt;font style=&quot;font-size: 14px;&quot;&gt;- read the input list twice:&lt;/font&gt;&lt;/div&gt;&lt;div style=&quot;font-size: 14px;&quot;&gt;&lt;font style=&quot;font-size: 14px;&quot;&gt;&lt;span style=&quot;white-space: pre;&quot;&gt;&#x9;&lt;/span&gt;1. read all line to know the total amount&lt;br&gt;&lt;/font&gt;&lt;/div&gt;&lt;div style=&quot;font-size: 14px;&quot;&gt;&lt;font style=&quot;font-size: 14px;&quot;&gt;&lt;span style=&quot;white-space: pre;&quot;&gt;&#x9;&lt;/span&gt;2. return a file reader that has skipped the first x songs as the user request&lt;/font&gt;&lt;br&gt;&lt;/div&gt;&lt;div style=&quot;font-size: 14px;&quot;&gt;&lt;font style=&quot;font-size: 14px;&quot;&gt;- DB connection&lt;/font&gt;&lt;/div&gt;&lt;div style=&quot;font-size: 14px;&quot;&gt;&lt;font style=&quot;font-size: 14px;&quot;&gt;&lt;br&gt;&lt;/font&gt;&lt;/div&gt;&lt;div style=&quot;font-size: 14px;&quot;&gt;&lt;font style=&quot;font-size: 14px;&quot;&gt;When running:&lt;/font&gt;&lt;/div&gt;&lt;div style=&quot;font-size: 14px;&quot;&gt;&lt;font style=&quot;font-size: 14px;&quot;&gt;- The app fill in the search bar with a title scanned from the line. The user optionally can modify it&lt;/font&gt;&lt;/div&gt;&lt;div style=&quot;font-size: 14px;&quot;&gt;&lt;font style=&quot;font-size: 14px;&quot;&gt;- Any modification on search bar trigger next:&lt;/font&gt;&lt;/div&gt;&lt;div style=&quot;font-size: 14px;&quot;&gt;&lt;font style=&quot;font-size: 14px;&quot;&gt;- The app search for songs from DB using the text from search bar as title&lt;/font&gt;&lt;/div&gt;&lt;div style=&quot;font-size: 14px;&quot;&gt;&lt;font style=&quot;font-size: 14px;&quot;&gt;- The user&lt;/font&gt;&lt;/div&gt;" style="text;html=1;strokeColor=none;fillColor=none;spacing=5;spacingTop=-20;whiteSpace=wrap;overflow=hidden;rounded=0;" vertex="1" parent="1">
          <mxGeometry x="54" y="820" width="386" height="320" as="geometry" />
        </mxCell>
        <mxCell id="lM5ClQp3Q17mZf645Zi1-10" value="" style="verticalLabelPosition=bottom;shadow=0;dashed=0;align=center;html=1;verticalAlign=top;strokeWidth=1;shape=mxgraph.mockup.misc.loading_circle_2;pointerEvents=1" vertex="1" parent="1">
          <mxGeometry x="236.5" y="255" width="21" height="20" as="geometry" />
        </mxCell>
      </root>
    </mxGraphModel>
  </diagram>
</mxfile>
